# xmcd CD database file
#
# Track frame offsets:
#	150
#	13532
#	27481
#	41645
#	52080
#	65800
#	76809
#	88202
#	101563
#	111798
#	125099
#	135505
#	148239
#	159950
#	173112
#	185790
#	195686
#	208096
#	221150
#	234336
#	245043
#	257876
#	270802
#	283774
#	298307
#	310591
#	322618
#	334020
#	346773
#
# Disc length: 4762 seconds
#
# Revision: 2
# Processed by: cddbd v1.5.2PL0 Copyright (c) Steve Scherf et al.
# Submitted via: CDex 1.94
#
DISCID=bb12981d
DTITLE=Various Artist - Chicago Bound (Chess Blues, R&B And Rock 'N' Roll) CD1
DYEAR=2014
DGENRE=Blues
TTITLE0=Howlin' Wolf - Moanin' At Midnight
TTITLE1=Muddy Waters - I'm Ready
TTITLE2=Etta James - I Just Want To Make Love To You
TTITLE3=Little Walter - I Hate To See You Go
TTITLE4=Elmore James - She Just Won't Do Right (Dust My Broom)
TTITLE5=Otis Rush - I'm Satisfied
TTITLE6=Bo Diddley - Who Do You Love
TTITLE7=Chuck Berry - Too Much Monkey Business
TTITLE8=Dale Hawkins - Susie-Q
TTITLE9=Eddie Fontaine - Nothin' Shakin (But The Leaves On The Tree)
TTITLE10=Muddy Waters - Tiger In Your Tank
TTITLE11=Jimmy Rodgers - Walking By Myself
TTITLE12=Sonny Boy Williamson - Don't Start Me Talkin'
TTITLE13=Willie Mabon - The Seventh Son
TTITLE14=Muddy Waters - I'm Your Hoochie Coochie Man
TTITLE15=Willie Dixon - 29 Ways
TTITLE16=John Lee Hooker - Walking The Boogie
TTITLE17=Jimmy Witherspoon - When The Lights Go Out
TTITLE18=Howlin' Wolf - I Ain't Superstitious
TTITLE19=J.B. Lenoir - Mamma Talk To Your Daughter
TTITLE20=Little Walter - Thunder Bird
TTITLE21=Sonny Boy Williamson - Keep It To Yourself
TTITLE22=Betty James - I'm A Little Mixed Up
TTITLE23=John Brim - Rattlesnake
TTITLE24=Jimmy Rodgers - Chicago Bound
TTITLE25=Doctor Ross - Doctor Ross Boogie
TTITLE26=Big Ed And His Combo - Biscuit Baking Mama
TTITLE27=Bobby Saxton - Trying To Make A Living
TTITLE28=Buddy Guy - First Time I Met The Blues
EXTD=YEAR: 2014
EXTT0=
EXTT1=
EXTT2=
EXTT3=
EXTT4=
EXTT5=
EXTT6=
EXTT7=
EXTT8=
EXTT9=
EXTT10=
EXTT11=
EXTT12=
EXTT13=
EXTT14=
EXTT15=
EXTT16=
EXTT17=
EXTT18=
EXTT19=
EXTT20=
EXTT21=
EXTT22=
EXTT23=
EXTT24=
EXTT25=
EXTT26=
EXTT27=
EXTT28=
PLAYORDER=
